<mxfile host="app.diagrams.net" modified="2024-05-02T16:27:47.437Z" agent="Mozilla/5.0 (Windows NT 10.0; Win64; x64) AppleWebKit/537.36 (KHTML, like Gecko) Chrome/124.0.0.0 Safari/537.36" etag="6u5m2dDg2WXkNqAHBhRC" version="24.3.1" type="device">
  <diagram id="C5RBs43oDa-KdzZeNtuy" name="Page-1">
    <mxGraphModel dx="2868" dy="1560" grid="1" gridSize="10" guides="1" tooltips="1" connect="1" arrows="1" fold="1" page="1" pageScale="1" pageWidth="827" pageHeight="1169" math="0" shadow="0">
      <root>
        <mxCell id="WIyWlLk6GJQsqaUBKTNV-0" />
        <mxCell id="WIyWlLk6GJQsqaUBKTNV-1" parent="WIyWlLk6GJQsqaUBKTNV-0" />
        <mxCell id="b1ORVTBcM8QreffQEjI8-5" style="edgeStyle=orthogonalEdgeStyle;rounded=0;orthogonalLoop=1;jettySize=auto;html=1;" parent="WIyWlLk6GJQsqaUBKTNV-1" source="WIyWlLk6GJQsqaUBKTNV-3" target="b1ORVTBcM8QreffQEjI8-4" edge="1">
          <mxGeometry relative="1" as="geometry" />
        </mxCell>
        <mxCell id="WIyWlLk6GJQsqaUBKTNV-3" value="Начало" style="rounded=1;whiteSpace=wrap;html=1;fontSize=12;glass=0;strokeWidth=1;shadow=0;" parent="WIyWlLk6GJQsqaUBKTNV-1" vertex="1">
          <mxGeometry x="210" width="80" height="30" as="geometry" />
        </mxCell>
        <mxCell id="b1ORVTBcM8QreffQEjI8-7" style="edgeStyle=orthogonalEdgeStyle;rounded=0;orthogonalLoop=1;jettySize=auto;html=1;" parent="WIyWlLk6GJQsqaUBKTNV-1" source="b1ORVTBcM8QreffQEjI8-4" target="b1ORVTBcM8QreffQEjI8-6" edge="1">
          <mxGeometry relative="1" as="geometry" />
        </mxCell>
        <mxCell id="b1ORVTBcM8QreffQEjI8-4" value="Объявление&amp;nbsp; переменных сообщений и буфера" style="rounded=0;whiteSpace=wrap;html=1;" parent="WIyWlLk6GJQsqaUBKTNV-1" vertex="1">
          <mxGeometry x="160" y="50" width="180" height="50" as="geometry" />
        </mxCell>
        <mxCell id="vxpqx_h1XbM0o7AQPfHb-7" style="edgeStyle=orthogonalEdgeStyle;rounded=0;orthogonalLoop=1;jettySize=auto;html=1;exitX=0.5;exitY=1;exitDx=0;exitDy=0;entryX=0.5;entryY=0;entryDx=0;entryDy=0;" parent="WIyWlLk6GJQsqaUBKTNV-1" source="b1ORVTBcM8QreffQEjI8-6" target="vxpqx_h1XbM0o7AQPfHb-1" edge="1">
          <mxGeometry relative="1" as="geometry" />
        </mxCell>
        <mxCell id="b1ORVTBcM8QreffQEjI8-6" value="Загрузка регистров" style="rounded=0;whiteSpace=wrap;html=1;" parent="WIyWlLk6GJQsqaUBKTNV-1" vertex="1">
          <mxGeometry x="210" y="120" width="80" height="40" as="geometry" />
        </mxCell>
        <mxCell id="Q4k1FI557Ry3vGBkqDbd-1" style="edgeStyle=orthogonalEdgeStyle;rounded=0;orthogonalLoop=1;jettySize=auto;html=1;" edge="1" parent="WIyWlLk6GJQsqaUBKTNV-1" source="vxpqx_h1XbM0o7AQPfHb-1" target="Q4k1FI557Ry3vGBkqDbd-0">
          <mxGeometry relative="1" as="geometry" />
        </mxCell>
        <mxCell id="vxpqx_h1XbM0o7AQPfHb-1" value="Получение PSP адреса" style="rounded=0;whiteSpace=wrap;html=1;" parent="WIyWlLk6GJQsqaUBKTNV-1" vertex="1">
          <mxGeometry x="200" y="180" width="100" height="40" as="geometry" />
        </mxCell>
        <mxCell id="Q4k1FI557Ry3vGBkqDbd-3" style="edgeStyle=orthogonalEdgeStyle;rounded=0;orthogonalLoop=1;jettySize=auto;html=1;" edge="1" parent="WIyWlLk6GJQsqaUBKTNV-1" source="Q4k1FI557Ry3vGBkqDbd-0" target="Q4k1FI557Ry3vGBkqDbd-2">
          <mxGeometry relative="1" as="geometry" />
        </mxCell>
        <mxCell id="Q4k1FI557Ry3vGBkqDbd-0" value="Получение длины параметров" style="rounded=0;whiteSpace=wrap;html=1;" vertex="1" parent="WIyWlLk6GJQsqaUBKTNV-1">
          <mxGeometry x="190" y="240" width="120" height="40" as="geometry" />
        </mxCell>
        <mxCell id="Q4k1FI557Ry3vGBkqDbd-7" style="edgeStyle=orthogonalEdgeStyle;rounded=0;orthogonalLoop=1;jettySize=auto;html=1;" edge="1" parent="WIyWlLk6GJQsqaUBKTNV-1" source="Q4k1FI557Ry3vGBkqDbd-2" target="Q4k1FI557Ry3vGBkqDbd-6">
          <mxGeometry relative="1" as="geometry" />
        </mxCell>
        <mxCell id="Q4k1FI557Ry3vGBkqDbd-2" value="Перенос параметров в буфер" style="rounded=0;whiteSpace=wrap;html=1;" vertex="1" parent="WIyWlLk6GJQsqaUBKTNV-1">
          <mxGeometry x="190" y="300" width="120" height="40" as="geometry" />
        </mxCell>
        <mxCell id="Q4k1FI557Ry3vGBkqDbd-10" style="edgeStyle=orthogonalEdgeStyle;rounded=0;orthogonalLoop=1;jettySize=auto;html=1;" edge="1" parent="WIyWlLk6GJQsqaUBKTNV-1" source="Q4k1FI557Ry3vGBkqDbd-4" target="Q4k1FI557Ry3vGBkqDbd-9">
          <mxGeometry relative="1" as="geometry" />
        </mxCell>
        <mxCell id="Q4k1FI557Ry3vGBkqDbd-23" style="edgeStyle=orthogonalEdgeStyle;rounded=0;orthogonalLoop=1;jettySize=auto;html=1;exitX=1;exitY=0.5;exitDx=0;exitDy=0;entryX=0.5;entryY=0;entryDx=0;entryDy=0;" edge="1" parent="WIyWlLk6GJQsqaUBKTNV-1" source="Q4k1FI557Ry3vGBkqDbd-4" target="Q4k1FI557Ry3vGBkqDbd-22">
          <mxGeometry relative="1" as="geometry" />
        </mxCell>
        <mxCell id="Q4k1FI557Ry3vGBkqDbd-4" value="Конец&amp;nbsp;&lt;div&gt;буфера?&lt;/div&gt;" style="rhombus;whiteSpace=wrap;html=1;" vertex="1" parent="WIyWlLk6GJQsqaUBKTNV-1">
          <mxGeometry x="195" y="440" width="110" height="40" as="geometry" />
        </mxCell>
        <mxCell id="Q4k1FI557Ry3vGBkqDbd-8" style="edgeStyle=orthogonalEdgeStyle;rounded=0;orthogonalLoop=1;jettySize=auto;html=1;" edge="1" parent="WIyWlLk6GJQsqaUBKTNV-1" source="Q4k1FI557Ry3vGBkqDbd-6" target="Q4k1FI557Ry3vGBkqDbd-4">
          <mxGeometry relative="1" as="geometry" />
        </mxCell>
        <mxCell id="Q4k1FI557Ry3vGBkqDbd-6" value="Адрес текущего символа = 0" style="rounded=0;whiteSpace=wrap;html=1;" vertex="1" parent="WIyWlLk6GJQsqaUBKTNV-1">
          <mxGeometry x="210" y="360" width="80" height="40" as="geometry" />
        </mxCell>
        <mxCell id="Q4k1FI557Ry3vGBkqDbd-12" style="edgeStyle=orthogonalEdgeStyle;rounded=0;orthogonalLoop=1;jettySize=auto;html=1;entryX=0.5;entryY=0;entryDx=0;entryDy=0;" edge="1" parent="WIyWlLk6GJQsqaUBKTNV-1" source="Q4k1FI557Ry3vGBkqDbd-9" target="Q4k1FI557Ry3vGBkqDbd-11">
          <mxGeometry relative="1" as="geometry" />
        </mxCell>
        <mxCell id="Q4k1FI557Ry3vGBkqDbd-18" style="edgeStyle=orthogonalEdgeStyle;rounded=0;orthogonalLoop=1;jettySize=auto;html=1;exitX=0.5;exitY=1;exitDx=0;exitDy=0;" edge="1" parent="WIyWlLk6GJQsqaUBKTNV-1" source="Q4k1FI557Ry3vGBkqDbd-9" target="Q4k1FI557Ry3vGBkqDbd-17">
          <mxGeometry relative="1" as="geometry" />
        </mxCell>
        <mxCell id="Q4k1FI557Ry3vGBkqDbd-9" value="Тек. символ&lt;div&gt;&amp;nbsp;= &#39; &#39; ?&lt;/div&gt;" style="rhombus;whiteSpace=wrap;html=1;" vertex="1" parent="WIyWlLk6GJQsqaUBKTNV-1">
          <mxGeometry x="190" y="500" width="120" height="60" as="geometry" />
        </mxCell>
        <mxCell id="Q4k1FI557Ry3vGBkqDbd-27" style="edgeStyle=orthogonalEdgeStyle;rounded=0;orthogonalLoop=1;jettySize=auto;html=1;entryX=0.5;entryY=0;entryDx=0;entryDy=0;" edge="1" parent="WIyWlLk6GJQsqaUBKTNV-1" source="Q4k1FI557Ry3vGBkqDbd-11" target="Q4k1FI557Ry3vGBkqDbd-26">
          <mxGeometry relative="1" as="geometry" />
        </mxCell>
        <mxCell id="Q4k1FI557Ry3vGBkqDbd-11" value="space_found" style="rhombus;whiteSpace=wrap;html=1;" vertex="1" parent="WIyWlLk6GJQsqaUBKTNV-1">
          <mxGeometry x="314" y="550" width="100" height="40" as="geometry" />
        </mxCell>
        <mxCell id="Q4k1FI557Ry3vGBkqDbd-13" value="Да" style="text;html=1;align=center;verticalAlign=middle;whiteSpace=wrap;rounded=0;" vertex="1" parent="WIyWlLk6GJQsqaUBKTNV-1">
          <mxGeometry x="310" y="510" width="30" height="20" as="geometry" />
        </mxCell>
        <mxCell id="Q4k1FI557Ry3vGBkqDbd-14" value="Нет" style="text;html=1;align=center;verticalAlign=middle;whiteSpace=wrap;rounded=0;" vertex="1" parent="WIyWlLk6GJQsqaUBKTNV-1">
          <mxGeometry x="250" y="480" width="30" height="20" as="geometry" />
        </mxCell>
        <mxCell id="Q4k1FI557Ry3vGBkqDbd-15" value="Нет" style="text;html=1;align=center;verticalAlign=middle;whiteSpace=wrap;rounded=0;" vertex="1" parent="WIyWlLk6GJQsqaUBKTNV-1">
          <mxGeometry x="250" y="560" width="30" height="20" as="geometry" />
        </mxCell>
        <mxCell id="Q4k1FI557Ry3vGBkqDbd-17" value="Увеличить адрес" style="rounded=0;whiteSpace=wrap;html=1;" vertex="1" parent="WIyWlLk6GJQsqaUBKTNV-1">
          <mxGeometry x="220" y="580" width="60" height="30" as="geometry" />
        </mxCell>
        <mxCell id="Q4k1FI557Ry3vGBkqDbd-20" value="" style="endArrow=classic;html=1;rounded=0;" edge="1" parent="WIyWlLk6GJQsqaUBKTNV-1" source="Q4k1FI557Ry3vGBkqDbd-17">
          <mxGeometry width="50" height="50" relative="1" as="geometry">
            <mxPoint x="290" y="630" as="sourcePoint" />
            <mxPoint x="250" y="415" as="targetPoint" />
            <Array as="points">
              <mxPoint x="250" y="630" />
              <mxPoint x="180" y="630" />
              <mxPoint x="180" y="415" />
            </Array>
          </mxGeometry>
        </mxCell>
        <mxCell id="Q4k1FI557Ry3vGBkqDbd-22" value="индекс пробела = незначащее число" style="rounded=0;whiteSpace=wrap;html=1;" vertex="1" parent="WIyWlLk6GJQsqaUBKTNV-1">
          <mxGeometry x="375" y="480" width="110" height="40" as="geometry" />
        </mxCell>
        <mxCell id="Q4k1FI557Ry3vGBkqDbd-24" value="Да" style="text;html=1;align=center;verticalAlign=middle;whiteSpace=wrap;rounded=0;" vertex="1" parent="WIyWlLk6GJQsqaUBKTNV-1">
          <mxGeometry x="300" y="440" width="30" height="20" as="geometry" />
        </mxCell>
        <mxCell id="Q4k1FI557Ry3vGBkqDbd-31" style="edgeStyle=orthogonalEdgeStyle;rounded=0;orthogonalLoop=1;jettySize=auto;html=1;" edge="1" parent="WIyWlLk6GJQsqaUBKTNV-1" source="Q4k1FI557Ry3vGBkqDbd-26" target="Q4k1FI557Ry3vGBkqDbd-30">
          <mxGeometry relative="1" as="geometry" />
        </mxCell>
        <mxCell id="Q4k1FI557Ry3vGBkqDbd-33" style="edgeStyle=orthogonalEdgeStyle;rounded=0;orthogonalLoop=1;jettySize=auto;html=1;entryX=0.5;entryY=0;entryDx=0;entryDy=0;" edge="1" parent="WIyWlLk6GJQsqaUBKTNV-1" source="Q4k1FI557Ry3vGBkqDbd-26" target="Q4k1FI557Ry3vGBkqDbd-32">
          <mxGeometry relative="1" as="geometry" />
        </mxCell>
        <mxCell id="Q4k1FI557Ry3vGBkqDbd-26" value="Длина&amp;nbsp; пар. 1 = длине&lt;div&gt;&amp;nbsp;фамилии студента?&lt;/div&gt;" style="rhombus;whiteSpace=wrap;html=1;" vertex="1" parent="WIyWlLk6GJQsqaUBKTNV-1">
          <mxGeometry x="350" y="630" width="160" height="80" as="geometry" />
        </mxCell>
        <mxCell id="Q4k1FI557Ry3vGBkqDbd-28" value="" style="endArrow=none;html=1;rounded=0;" edge="1" parent="WIyWlLk6GJQsqaUBKTNV-1" target="Q4k1FI557Ry3vGBkqDbd-22">
          <mxGeometry width="50" height="50" relative="1" as="geometry">
            <mxPoint x="430" y="610" as="sourcePoint" />
            <mxPoint x="380" y="680" as="targetPoint" />
          </mxGeometry>
        </mxCell>
        <mxCell id="Q4k1FI557Ry3vGBkqDbd-43" style="edgeStyle=orthogonalEdgeStyle;rounded=0;orthogonalLoop=1;jettySize=auto;html=1;entryX=0.5;entryY=0;entryDx=0;entryDy=0;" edge="1" parent="WIyWlLk6GJQsqaUBKTNV-1" source="Q4k1FI557Ry3vGBkqDbd-30" target="Q4k1FI557Ry3vGBkqDbd-42">
          <mxGeometry relative="1" as="geometry" />
        </mxCell>
        <mxCell id="Q4k1FI557Ry3vGBkqDbd-30" value="NotEqual" style="rhombus;whiteSpace=wrap;html=1;" vertex="1" parent="WIyWlLk6GJQsqaUBKTNV-1">
          <mxGeometry x="380" y="800" width="100" height="40" as="geometry" />
        </mxCell>
        <mxCell id="Q4k1FI557Ry3vGBkqDbd-36" style="edgeStyle=orthogonalEdgeStyle;rounded=0;orthogonalLoop=1;jettySize=auto;html=1;" edge="1" parent="WIyWlLk6GJQsqaUBKTNV-1" source="Q4k1FI557Ry3vGBkqDbd-32" target="Q4k1FI557Ry3vGBkqDbd-35">
          <mxGeometry relative="1" as="geometry" />
        </mxCell>
        <mxCell id="Q4k1FI557Ry3vGBkqDbd-32" value="COMPARE" style="rhombus;whiteSpace=wrap;html=1;" vertex="1" parent="WIyWlLk6GJQsqaUBKTNV-1">
          <mxGeometry x="517.5" y="690" width="100" height="40" as="geometry" />
        </mxCell>
        <mxCell id="Q4k1FI557Ry3vGBkqDbd-40" style="edgeStyle=orthogonalEdgeStyle;rounded=0;orthogonalLoop=1;jettySize=auto;html=1;" edge="1" parent="WIyWlLk6GJQsqaUBKTNV-1" source="Q4k1FI557Ry3vGBkqDbd-35" target="Q4k1FI557Ry3vGBkqDbd-39">
          <mxGeometry relative="1" as="geometry" />
        </mxCell>
        <mxCell id="Q4k1FI557Ry3vGBkqDbd-35" value="Фамилия и параметр&amp;nbsp;&lt;div&gt;равны побайтово?&lt;/div&gt;" style="rhombus;whiteSpace=wrap;html=1;" vertex="1" parent="WIyWlLk6GJQsqaUBKTNV-1">
          <mxGeometry x="477.5" y="750" width="180" height="60" as="geometry" />
        </mxCell>
        <mxCell id="Q4k1FI557Ry3vGBkqDbd-38" value="Нет" style="text;html=1;align=center;verticalAlign=middle;whiteSpace=wrap;rounded=0;" vertex="1" parent="WIyWlLk6GJQsqaUBKTNV-1">
          <mxGeometry x="455" y="760" width="30" height="20" as="geometry" />
        </mxCell>
        <mxCell id="Q4k1FI557Ry3vGBkqDbd-54" style="edgeStyle=orthogonalEdgeStyle;rounded=0;orthogonalLoop=1;jettySize=auto;html=1;" edge="1" parent="WIyWlLk6GJQsqaUBKTNV-1" source="Q4k1FI557Ry3vGBkqDbd-39">
          <mxGeometry relative="1" as="geometry">
            <mxPoint x="429.9999999999998" y="1020" as="targetPoint" />
            <Array as="points">
              <mxPoint x="567" y="1010" />
              <mxPoint x="567" y="1020" />
            </Array>
          </mxGeometry>
        </mxCell>
        <mxCell id="Q4k1FI557Ry3vGBkqDbd-39" value="Первый&amp;nbsp;&lt;div&gt;параметр верен&lt;/div&gt;" style="shape=parallelogram;perimeter=parallelogramPerimeter;whiteSpace=wrap;html=1;fixedSize=1;" vertex="1" parent="WIyWlLk6GJQsqaUBKTNV-1">
          <mxGeometry x="507.5" y="830" width="120" height="40" as="geometry" />
        </mxCell>
        <mxCell id="Q4k1FI557Ry3vGBkqDbd-41" value="Да" style="text;html=1;align=center;verticalAlign=middle;whiteSpace=wrap;rounded=0;" vertex="1" parent="WIyWlLk6GJQsqaUBKTNV-1">
          <mxGeometry x="580" y="810" width="30" height="20" as="geometry" />
        </mxCell>
        <mxCell id="Q4k1FI557Ry3vGBkqDbd-51" style="edgeStyle=orthogonalEdgeStyle;rounded=0;orthogonalLoop=1;jettySize=auto;html=1;" edge="1" parent="WIyWlLk6GJQsqaUBKTNV-1" source="Q4k1FI557Ry3vGBkqDbd-42" target="Q4k1FI557Ry3vGBkqDbd-50">
          <mxGeometry relative="1" as="geometry" />
        </mxCell>
        <mxCell id="Q4k1FI557Ry3vGBkqDbd-42" value="Общая длина буф. =&amp;nbsp;&lt;div&gt;длине фамилии студента?&lt;/div&gt;" style="rhombus;whiteSpace=wrap;html=1;" vertex="1" parent="WIyWlLk6GJQsqaUBKTNV-1">
          <mxGeometry x="317.5" y="860" width="225" height="80" as="geometry" />
        </mxCell>
        <mxCell id="Q4k1FI557Ry3vGBkqDbd-45" value="" style="endArrow=none;html=1;rounded=0;entryX=0;entryY=0.5;entryDx=0;entryDy=0;startArrow=classic;startFill=1;" edge="1" parent="WIyWlLk6GJQsqaUBKTNV-1" target="Q4k1FI557Ry3vGBkqDbd-35">
          <mxGeometry width="50" height="50" relative="1" as="geometry">
            <mxPoint x="430" y="780" as="sourcePoint" />
            <mxPoint x="550" y="770" as="targetPoint" />
          </mxGeometry>
        </mxCell>
        <mxCell id="Q4k1FI557Ry3vGBkqDbd-48" value="Да" style="text;html=1;align=center;verticalAlign=middle;whiteSpace=wrap;rounded=0;" vertex="1" parent="WIyWlLk6GJQsqaUBKTNV-1">
          <mxGeometry x="507.5" y="650" width="30" height="20" as="geometry" />
        </mxCell>
        <mxCell id="Q4k1FI557Ry3vGBkqDbd-49" value="" style="endArrow=classic;html=1;rounded=0;exitX=1;exitY=0.5;exitDx=0;exitDy=0;" edge="1" parent="WIyWlLk6GJQsqaUBKTNV-1" source="Q4k1FI557Ry3vGBkqDbd-42">
          <mxGeometry width="50" height="50" relative="1" as="geometry">
            <mxPoint x="500" y="820" as="sourcePoint" />
            <mxPoint x="565" y="670" as="targetPoint" />
            <Array as="points">
              <mxPoint x="670" y="900" />
              <mxPoint x="670" y="670" />
            </Array>
          </mxGeometry>
        </mxCell>
        <mxCell id="Q4k1FI557Ry3vGBkqDbd-53" style="edgeStyle=orthogonalEdgeStyle;rounded=0;orthogonalLoop=1;jettySize=auto;html=1;entryX=0.5;entryY=0;entryDx=0;entryDy=0;exitX=0.5;exitY=1;exitDx=0;exitDy=0;" edge="1" parent="WIyWlLk6GJQsqaUBKTNV-1" source="Q4k1FI557Ry3vGBkqDbd-50" target="Q4k1FI557Ry3vGBkqDbd-52">
          <mxGeometry relative="1" as="geometry" />
        </mxCell>
        <mxCell id="Q4k1FI557Ry3vGBkqDbd-50" value="Первый&amp;nbsp;&lt;div&gt;параметр не верен&lt;/div&gt;" style="shape=parallelogram;perimeter=parallelogramPerimeter;whiteSpace=wrap;html=1;fixedSize=1;" vertex="1" parent="WIyWlLk6GJQsqaUBKTNV-1">
          <mxGeometry x="357.5" y="960" width="145" height="40" as="geometry" />
        </mxCell>
        <mxCell id="Q4k1FI557Ry3vGBkqDbd-67" style="edgeStyle=orthogonalEdgeStyle;rounded=0;orthogonalLoop=1;jettySize=auto;html=1;" edge="1" parent="WIyWlLk6GJQsqaUBKTNV-1" source="Q4k1FI557Ry3vGBkqDbd-52" target="Q4k1FI557Ry3vGBkqDbd-66">
          <mxGeometry relative="1" as="geometry" />
        </mxCell>
        <mxCell id="Q4k1FI557Ry3vGBkqDbd-52" value="Обработка&lt;div&gt;пар. 2&lt;/div&gt;" style="rhombus;whiteSpace=wrap;html=1;" vertex="1" parent="WIyWlLk6GJQsqaUBKTNV-1">
          <mxGeometry x="200" y="1040" width="100" height="60" as="geometry" />
        </mxCell>
        <mxCell id="Q4k1FI557Ry3vGBkqDbd-55" style="edgeStyle=orthogonalEdgeStyle;rounded=0;orthogonalLoop=1;jettySize=auto;html=1;" edge="1" parent="WIyWlLk6GJQsqaUBKTNV-1" source="Q4k1FI557Ry3vGBkqDbd-56" target="Q4k1FI557Ry3vGBkqDbd-60">
          <mxGeometry relative="1" as="geometry" />
        </mxCell>
        <mxCell id="Q4k1FI557Ry3vGBkqDbd-56" value="Конец&amp;nbsp;&lt;div&gt;буфера?&lt;/div&gt;" style="rhombus;whiteSpace=wrap;html=1;" vertex="1" parent="WIyWlLk6GJQsqaUBKTNV-1">
          <mxGeometry x="195" y="1280" width="110" height="40" as="geometry" />
        </mxCell>
        <mxCell id="Q4k1FI557Ry3vGBkqDbd-57" style="edgeStyle=orthogonalEdgeStyle;rounded=0;orthogonalLoop=1;jettySize=auto;html=1;" edge="1" parent="WIyWlLk6GJQsqaUBKTNV-1" source="Q4k1FI557Ry3vGBkqDbd-58" target="Q4k1FI557Ry3vGBkqDbd-56">
          <mxGeometry relative="1" as="geometry" />
        </mxCell>
        <mxCell id="Q4k1FI557Ry3vGBkqDbd-58" value="Адрес текущего символа = индекс первого пробела +1" style="rounded=0;whiteSpace=wrap;html=1;" vertex="1" parent="WIyWlLk6GJQsqaUBKTNV-1">
          <mxGeometry x="155" y="1200" width="190" height="40" as="geometry" />
        </mxCell>
        <mxCell id="Q4k1FI557Ry3vGBkqDbd-59" style="edgeStyle=orthogonalEdgeStyle;rounded=0;orthogonalLoop=1;jettySize=auto;html=1;exitX=0.5;exitY=1;exitDx=0;exitDy=0;" edge="1" parent="WIyWlLk6GJQsqaUBKTNV-1" source="Q4k1FI557Ry3vGBkqDbd-60" target="Q4k1FI557Ry3vGBkqDbd-63">
          <mxGeometry relative="1" as="geometry" />
        </mxCell>
        <mxCell id="Q4k1FI557Ry3vGBkqDbd-75" style="edgeStyle=orthogonalEdgeStyle;rounded=0;orthogonalLoop=1;jettySize=auto;html=1;entryX=0.5;entryY=0;entryDx=0;entryDy=0;exitX=1;exitY=0.5;exitDx=0;exitDy=0;" edge="1" parent="WIyWlLk6GJQsqaUBKTNV-1" source="Q4k1FI557Ry3vGBkqDbd-60" target="Q4k1FI557Ry3vGBkqDbd-74">
          <mxGeometry relative="1" as="geometry" />
        </mxCell>
        <mxCell id="Q4k1FI557Ry3vGBkqDbd-60" value="Тек. символ&lt;div&gt;&amp;nbsp;!= &#39; &#39; ?&lt;/div&gt;" style="rhombus;whiteSpace=wrap;html=1;" vertex="1" parent="WIyWlLk6GJQsqaUBKTNV-1">
          <mxGeometry x="190" y="1340" width="120" height="60" as="geometry" />
        </mxCell>
        <mxCell id="Q4k1FI557Ry3vGBkqDbd-61" value="Нет" style="text;html=1;align=center;verticalAlign=middle;whiteSpace=wrap;rounded=0;" vertex="1" parent="WIyWlLk6GJQsqaUBKTNV-1">
          <mxGeometry x="250" y="1320" width="30" height="20" as="geometry" />
        </mxCell>
        <mxCell id="Q4k1FI557Ry3vGBkqDbd-62" value="Нет" style="text;html=1;align=center;verticalAlign=middle;whiteSpace=wrap;rounded=0;" vertex="1" parent="WIyWlLk6GJQsqaUBKTNV-1">
          <mxGeometry x="250" y="1400" width="30" height="20" as="geometry" />
        </mxCell>
        <mxCell id="Q4k1FI557Ry3vGBkqDbd-63" value="Увеличить адрес" style="rounded=0;whiteSpace=wrap;html=1;" vertex="1" parent="WIyWlLk6GJQsqaUBKTNV-1">
          <mxGeometry x="220" y="1420" width="60" height="30" as="geometry" />
        </mxCell>
        <mxCell id="Q4k1FI557Ry3vGBkqDbd-64" value="" style="endArrow=classic;html=1;rounded=0;" edge="1" parent="WIyWlLk6GJQsqaUBKTNV-1" source="Q4k1FI557Ry3vGBkqDbd-63">
          <mxGeometry width="50" height="50" relative="1" as="geometry">
            <mxPoint x="290" y="1470" as="sourcePoint" />
            <mxPoint x="250" y="1255" as="targetPoint" />
            <Array as="points">
              <mxPoint x="250" y="1470" />
              <mxPoint x="180" y="1470" />
              <mxPoint x="180" y="1255" />
            </Array>
          </mxGeometry>
        </mxCell>
        <mxCell id="Q4k1FI557Ry3vGBkqDbd-65" value="Да" style="text;html=1;align=center;verticalAlign=middle;whiteSpace=wrap;rounded=0;" vertex="1" parent="WIyWlLk6GJQsqaUBKTNV-1">
          <mxGeometry x="300" y="1280" width="30" height="20" as="geometry" />
        </mxCell>
        <mxCell id="Q4k1FI557Ry3vGBkqDbd-68" style="edgeStyle=orthogonalEdgeStyle;rounded=0;orthogonalLoop=1;jettySize=auto;html=1;" edge="1" parent="WIyWlLk6GJQsqaUBKTNV-1" source="Q4k1FI557Ry3vGBkqDbd-66" target="Q4k1FI557Ry3vGBkqDbd-58">
          <mxGeometry relative="1" as="geometry" />
        </mxCell>
        <mxCell id="Q4k1FI557Ry3vGBkqDbd-70" style="edgeStyle=orthogonalEdgeStyle;rounded=0;orthogonalLoop=1;jettySize=auto;html=1;exitX=1;exitY=0.5;exitDx=0;exitDy=0;entryX=0.5;entryY=0;entryDx=0;entryDy=0;" edge="1" parent="WIyWlLk6GJQsqaUBKTNV-1" source="Q4k1FI557Ry3vGBkqDbd-66" target="Q4k1FI557Ry3vGBkqDbd-69">
          <mxGeometry relative="1" as="geometry" />
        </mxCell>
        <mxCell id="Q4k1FI557Ry3vGBkqDbd-66" value="Индекс пробела незначащий?" style="rhombus;whiteSpace=wrap;html=1;" vertex="1" parent="WIyWlLk6GJQsqaUBKTNV-1">
          <mxGeometry x="175" y="1120" width="150" height="60" as="geometry" />
        </mxCell>
        <mxCell id="Q4k1FI557Ry3vGBkqDbd-81" style="edgeStyle=orthogonalEdgeStyle;rounded=0;orthogonalLoop=1;jettySize=auto;html=1;" edge="1" parent="WIyWlLk6GJQsqaUBKTNV-1" source="Q4k1FI557Ry3vGBkqDbd-69" target="Q4k1FI557Ry3vGBkqDbd-79">
          <mxGeometry relative="1" as="geometry" />
        </mxCell>
        <mxCell id="Q4k1FI557Ry3vGBkqDbd-69" value="Нет пар. 2" style="rhombus;whiteSpace=wrap;html=1;" vertex="1" parent="WIyWlLk6GJQsqaUBKTNV-1">
          <mxGeometry x="380" y="1330" width="80" height="40" as="geometry" />
        </mxCell>
        <mxCell id="Q4k1FI557Ry3vGBkqDbd-71" value="Да" style="text;html=1;align=center;verticalAlign=middle;whiteSpace=wrap;rounded=0;" vertex="1" parent="WIyWlLk6GJQsqaUBKTNV-1">
          <mxGeometry x="317.5" y="1130" width="30" height="20" as="geometry" />
        </mxCell>
        <mxCell id="Q4k1FI557Ry3vGBkqDbd-72" value="Нет" style="text;html=1;align=center;verticalAlign=middle;whiteSpace=wrap;rounded=0;" vertex="1" parent="WIyWlLk6GJQsqaUBKTNV-1">
          <mxGeometry x="250" y="1180" width="30" height="20" as="geometry" />
        </mxCell>
        <mxCell id="Q4k1FI557Ry3vGBkqDbd-73" value="" style="endArrow=classic;html=1;rounded=0;" edge="1" parent="WIyWlLk6GJQsqaUBKTNV-1" source="Q4k1FI557Ry3vGBkqDbd-56">
          <mxGeometry width="50" height="50" relative="1" as="geometry">
            <mxPoint x="240" y="1350" as="sourcePoint" />
            <mxPoint x="420" y="1300" as="targetPoint" />
          </mxGeometry>
        </mxCell>
        <mxCell id="Q4k1FI557Ry3vGBkqDbd-78" style="edgeStyle=orthogonalEdgeStyle;rounded=0;orthogonalLoop=1;jettySize=auto;html=1;entryX=0.5;entryY=0;entryDx=0;entryDy=0;" edge="1" parent="WIyWlLk6GJQsqaUBKTNV-1" source="Q4k1FI557Ry3vGBkqDbd-74" target="Q4k1FI557Ry3vGBkqDbd-77">
          <mxGeometry relative="1" as="geometry" />
        </mxCell>
        <mxCell id="Q4k1FI557Ry3vGBkqDbd-74" value="Есть пар. 2" style="rhombus;whiteSpace=wrap;html=1;" vertex="1" parent="WIyWlLk6GJQsqaUBKTNV-1">
          <mxGeometry x="300" y="1390" width="80" height="40" as="geometry" />
        </mxCell>
        <mxCell id="Q4k1FI557Ry3vGBkqDbd-76" value="Да" style="text;html=1;align=center;verticalAlign=middle;whiteSpace=wrap;rounded=0;" vertex="1" parent="WIyWlLk6GJQsqaUBKTNV-1">
          <mxGeometry x="305" y="1350" width="30" height="20" as="geometry" />
        </mxCell>
        <mxCell id="Q4k1FI557Ry3vGBkqDbd-83" style="edgeStyle=orthogonalEdgeStyle;rounded=0;orthogonalLoop=1;jettySize=auto;html=1;entryX=0.5;entryY=0;entryDx=0;entryDy=0;" edge="1" parent="WIyWlLk6GJQsqaUBKTNV-1" source="Q4k1FI557Ry3vGBkqDbd-77" target="Q4k1FI557Ry3vGBkqDbd-82">
          <mxGeometry relative="1" as="geometry" />
        </mxCell>
        <mxCell id="Q4k1FI557Ry3vGBkqDbd-77" value="Есть пар. 2" style="shape=parallelogram;perimeter=parallelogramPerimeter;whiteSpace=wrap;html=1;fixedSize=1;" vertex="1" parent="WIyWlLk6GJQsqaUBKTNV-1">
          <mxGeometry x="292" y="1450" width="96" height="20" as="geometry" />
        </mxCell>
        <mxCell id="Q4k1FI557Ry3vGBkqDbd-84" style="edgeStyle=orthogonalEdgeStyle;rounded=0;orthogonalLoop=1;jettySize=auto;html=1;" edge="1" parent="WIyWlLk6GJQsqaUBKTNV-1" source="Q4k1FI557Ry3vGBkqDbd-79">
          <mxGeometry relative="1" as="geometry">
            <mxPoint x="340" y="1490" as="targetPoint" />
            <Array as="points">
              <mxPoint x="420" y="1490" />
            </Array>
          </mxGeometry>
        </mxCell>
        <mxCell id="Q4k1FI557Ry3vGBkqDbd-79" value="Нет&amp;nbsp;&lt;div&gt;пар. 2&lt;/div&gt;" style="shape=parallelogram;perimeter=parallelogramPerimeter;whiteSpace=wrap;html=1;fixedSize=1;" vertex="1" parent="WIyWlLk6GJQsqaUBKTNV-1">
          <mxGeometry x="386" y="1390" width="68" height="30" as="geometry" />
        </mxCell>
        <mxCell id="Q4k1FI557Ry3vGBkqDbd-86" style="edgeStyle=orthogonalEdgeStyle;rounded=0;orthogonalLoop=1;jettySize=auto;html=1;" edge="1" parent="WIyWlLk6GJQsqaUBKTNV-1" source="Q4k1FI557Ry3vGBkqDbd-82" target="Q4k1FI557Ry3vGBkqDbd-85">
          <mxGeometry relative="1" as="geometry" />
        </mxCell>
        <mxCell id="Q4k1FI557Ry3vGBkqDbd-82" value="Распечатка параметров" style="rhombus;whiteSpace=wrap;html=1;" vertex="1" parent="WIyWlLk6GJQsqaUBKTNV-1">
          <mxGeometry x="190" y="1510" width="120" height="60" as="geometry" />
        </mxCell>
        <mxCell id="Q4k1FI557Ry3vGBkqDbd-88" style="edgeStyle=orthogonalEdgeStyle;rounded=0;orthogonalLoop=1;jettySize=auto;html=1;" edge="1" parent="WIyWlLk6GJQsqaUBKTNV-1" source="Q4k1FI557Ry3vGBkqDbd-85" target="Q4k1FI557Ry3vGBkqDbd-87">
          <mxGeometry relative="1" as="geometry" />
        </mxCell>
        <mxCell id="Q4k1FI557Ry3vGBkqDbd-85" value="Вывод буфера" style="shape=parallelogram;perimeter=parallelogramPerimeter;whiteSpace=wrap;html=1;fixedSize=1;" vertex="1" parent="WIyWlLk6GJQsqaUBKTNV-1">
          <mxGeometry x="191" y="1590" width="118" height="20" as="geometry" />
        </mxCell>
        <mxCell id="Q4k1FI557Ry3vGBkqDbd-87" value="Конец" style="rounded=1;whiteSpace=wrap;html=1;fontSize=12;glass=0;strokeWidth=1;shadow=0;" vertex="1" parent="WIyWlLk6GJQsqaUBKTNV-1">
          <mxGeometry x="210" y="1630" width="80" height="30" as="geometry" />
        </mxCell>
      </root>
    </mxGraphModel>
  </diagram>
</mxfile>
